<svg width="56" height="25" viewBox="0 0 56 25" fill="none" xmlns="http://www.w3.org/2000/svg">
<path d="M41.6818 23.2138C41.6809 23.0341 41.716 22.8561 41.7849 22.6901C41.8538 22.5242 41.9551 22.3737 42.0829 22.2474L52.0567 12.2736L42.0829 2.2998C41.8414 2.04056 41.7099 1.69768 41.7161 1.3434C41.7224 0.989118 41.8659 0.651093 42.1164 0.400538C42.367 0.149984 42.705 0.00646395 43.0593 0.000213055C43.4136 -0.00603784 43.7565 0.125469 44.0157 0.367028L54.9559 11.3072C55.212 11.5636 55.3558 11.9112 55.3558 12.2736C55.3558 12.636 55.212 12.9836 54.9559 13.24L44.0157 24.1802C43.7593 24.4363 43.4117 24.5801 43.0493 24.5801C42.6869 24.5801 42.3393 24.4363 42.0829 24.1802C41.9551 24.0539 41.8538 23.9034 41.7849 23.7375C41.716 23.5715 41.6809 23.3935 41.6818 23.2138Z" fill="black"/>
<path d="M-1.20899e-06 12.2737C0.00472124 11.9125 0.150313 11.5674 0.405757 11.3119C0.661201 11.0565 1.0063 10.9109 1.36752 10.9062L53.9894 10.9055C54.3521 10.9055 54.6999 11.0496 54.9564 11.3061C55.2129 11.5625 55.3569 11.9104 55.3569 12.2731C55.3569 12.6358 55.2129 12.9836 54.9564 13.2401C54.6999 13.4965 54.3521 13.6406 53.9894 13.6406L1.36752 13.6412C1.0063 13.6365 0.661201 13.4909 0.405757 13.2355C0.150313 12.98 0.00472124 12.6349 -1.20899e-06 12.2737Z" fill="black"/>
</svg>
