<svg width="794" height="809" viewBox="0 0 794 809" fill="none"
              xmlns="http://www.w3.org/2000/svg">
              <g filter="url(#filter0_b_17_26)">
                <path
                  d="M136.696 448.725L230.361 460.828L282.906 380.008L242.85 291.971L150.033 279.451L98.3264 359.982L136.619 448.849L136.696 448.725Z"
                  fill="#B297FF" fill-opacity="0.3" />
              </g>
              <path
                d="M149.94 280.649L189.548 370.082L136.732 447.672L98.9692 360.034L149.94 280.649ZM150.966 280.15L242.461 292.492L281.975 379.338L190.586 369.61L150.966 280.15ZM190.476 370.74L281.924 380.475L230.079 460.219L137.693 448.281L190.476 370.74Z"
                stroke="#F1EFFC" stroke-width="1.13749" />
              <g class="js-top-logos">
                <path
                  d="M562.928 317.166L468.345 306.244L519.037 229.7L612.576 238.47L562.928 317.166ZM612.569 237.329L519.119 228.567L475.266 141.125L568.929 152.45L612.569 237.329ZM425.442 219.958L474.228 141.597L518.094 229.065L467.356 305.678L425.442 219.958Z"
                  fill="#FFD51C" stroke="#505050" stroke-width="1.13749" />
                <g class="def">
                  <g clip-path="url(#clip0_17_26)" class="a">
                    <path
                      d="M543.105 183.182L552.572 184.393L538.873 174.627L543.105 183.182ZM540.855 203.732C539.814 203.599 538.756 203.149 537.682 202.384C536.608 201.618 535.839 200.765 535.376 199.825L532.836 194.692L563.131 198.566L565.671 203.7C566.136 204.641 566.164 205.399 565.753 205.975C565.343 206.551 564.617 206.772 563.577 206.638L540.855 203.732ZM525.463 190.543L523.77 187.121L565.426 192.448L567.119 195.871L525.463 190.543ZM527.757 184.425L521.832 172.447C521.366 171.506 521.339 170.748 521.749 170.172C522.159 169.596 522.885 169.375 523.926 169.509L539.073 171.447L555.513 183.166L558.052 188.3L527.757 184.425Z"
                      fill="#505050" />
                  </g>
                  <g clip-path="url(#clip0_57_3)" class="b">
                    <path
                      d="M534.506 173.902L517.741 171.695C516.012 171.467 515.245 172.552 516.037 174.106L526.113 193.881L546.021 196.502L534.506 173.902ZM540.479 191.38C540.742 191.898 540.487 192.259 539.91 192.183L528.385 190.666C527.808 190.59 527.121 190.104 526.857 189.586L525.658 187.232C524.458 184.878 524.922 183.007 526.594 182.26C525.578 181.512 524.703 180.562 524.199 179.573C523.143 177.502 524.166 176.055 526.471 176.358C528.776 176.662 531.526 178.605 532.581 180.677C533.085 181.665 533.122 182.505 532.777 183.074C535.505 184.4 538.08 186.672 539.279 189.026L540.479 191.38ZM527.072 195.764L568.984 201.282C569.776 202.836 569.009 203.921 567.28 203.693L531.655 199.003C529.926 198.775 527.864 197.318 527.072 195.764ZM553.366 176.385L536.601 174.178L548.116 196.778L568.025 199.399L557.949 179.624C557.157 178.07 555.095 176.613 553.366 176.385ZM562.482 194.277C562.746 194.795 562.491 195.156 561.914 195.08L550.388 193.563C549.812 193.487 549.125 193.001 548.861 192.483L547.661 190.129C546.462 187.775 546.926 185.903 548.598 185.157C547.581 184.409 546.706 183.459 546.203 182.47C545.147 180.398 546.17 178.952 548.475 179.255C550.78 179.559 553.529 181.502 554.585 183.574C555.089 184.562 555.126 185.402 554.78 185.971C557.508 187.297 560.083 189.568 561.283 191.922L562.482 194.277ZM563.872 208.515C564.136 209.033 563.881 209.395 563.304 209.319L542.348 206.56C541.772 206.484 541.085 205.998 540.821 205.481C540.557 204.963 540.812 204.601 541.389 204.677L546.104 205.298L544.664 202.473L556.19 203.99L557.63 206.815L562.345 207.436C562.921 207.512 563.608 207.997 563.872 208.515ZM526.294 179.849C525.767 178.813 526.278 178.09 527.43 178.242C528.583 178.393 529.958 179.365 530.486 180.401C531.013 181.437 530.502 182.16 529.35 182.008C528.197 181.857 526.822 180.885 526.294 179.849ZM537.183 188.75L537.903 190.162L528.473 188.921L527.753 187.508C526.554 185.154 527.69 183.547 530.309 183.892C532.929 184.236 535.984 186.396 537.183 188.75ZM548.298 182.746C547.77 181.71 548.282 180.987 549.434 181.138C550.587 181.29 551.962 182.262 552.489 183.298C553.017 184.334 552.506 185.057 551.353 184.905C550.201 184.753 548.826 183.782 548.298 182.746ZM559.187 191.647L559.907 193.059L550.477 191.818L549.757 190.405C548.558 188.051 549.694 186.444 552.313 186.788C554.933 187.133 557.988 189.292 559.187 191.647Z"
                      fill="#505050" />
                  </g>
                  <g class="c">
                    <path
                      d="M563.361 193.372C561.568 189.854 556.882 186.392 552.728 185.407C546.988 179.399 538.811 174.821 531.503 173.859C530.981 173.79 530.198 173.687 529.795 173.853C527.392 172.005 524.826 170.792 522.477 170.482C518.039 169.898 516.2 172.501 518.232 176.489C518.71 177.427 519.329 178.165 520.069 179.138C519.295 181.443 519.805 184.355 521.598 187.874C523.391 191.393 525.989 194.58 529.391 197.435C529.609 198.339 529.706 199.008 530.184 199.947C532.216 203.934 537.163 207.431 541.601 208.015C543.95 208.324 545.56 207.661 546.289 206.225C546.811 206.294 547.714 206.631 548.236 206.7C555.545 207.662 559.777 204.499 559.899 199.482C563.576 199.528 565.154 196.891 563.361 193.372ZM524.867 175.174C526.433 175.38 527.956 176.456 528.673 177.863C529.39 179.271 528.824 180.072 527.258 179.865C525.692 179.659 524.169 178.584 523.452 177.176C522.735 175.769 523.301 174.968 524.867 175.174ZM539.21 203.323C537.644 203.117 536.122 202.041 535.405 200.634C534.687 199.226 535.253 198.426 536.82 198.632C538.386 198.838 539.908 199.914 540.625 201.321C541.342 202.729 540.776 203.53 539.21 203.323ZM545.845 202.008C543.814 198.021 538.866 194.524 534.429 193.94C533.124 193.768 531.938 193.831 531.253 194.397C529.372 192.618 527.894 190.673 526.818 188.561C525.742 186.45 525.308 184.642 525.516 183.138C526.918 183.979 528.343 184.385 529.648 184.557C534.086 185.141 535.925 182.538 533.893 178.551C538.852 179.204 543.963 182.065 548.105 185.893C546.734 187.025 546.505 188.965 547.7 191.31C548.895 193.656 551.276 195.939 554.081 197.622C553.525 200.831 550.805 202.661 545.845 202.008ZM556.726 194.687C555.16 194.481 553.637 193.405 552.92 191.998C552.203 190.59 552.769 189.789 554.335 189.996C555.901 190.202 557.424 191.278 558.141 192.685C558.858 194.093 558.292 194.893 556.726 194.687Z"
                      fill="#505050" />
                  </g>
                </g>
                <g class="act">
                  <rect width="40.017" height="36.9388" transform="matrix(0.993068 0.117537 0.453991 0.891007 520 172)"
                    fill="url(#pattern0)" />
                </g>
              </g>
              <g filter="url(#filter1_b_17_26)">
                <path
                  d="M362.652 291.882L457.434 303.456L507.771 223.677L464.551 137.124L370.612 125.129L321.118 204.622L362.577 292.002L362.652 291.882Z"
                  fill="#B297FF" fill-opacity="0.3" />
              </g>
              <path
                d="M457.145 302.849L363.638 291.43L414.309 214.892L506.8 224.151L457.145 302.849ZM506.801 223.01L414.398 213.759L371.585 125.826L464.176 137.649L506.801 223.01ZM321.766 204.658L370.551 126.304L413.369 214.251L362.66 290.847L321.766 204.658Z"
                stroke="#F1EFFC" stroke-width="1.13749" />
              <path
                d="M209.159 195.686L249.814 284.632L198.053 361.719L159.27 274.557L209.159 195.686ZM210.187 195.194L301.668 207.536L342.196 293.899L250.849 284.153L210.187 195.194ZM250.746 285.284L342.166 295.038L291.403 374.264L199.016 362.326L250.746 285.284Z"
                fill="#968CFF" stroke="#505050" stroke-width="1.13749" />
              <g filter="url(#filter2_b_17_26)">
                <path
                  d="M255.698 276.738L349.359 288.842L399.686 209.066L357.526 122.015L264.714 109.491L215.227 188.981L255.625 276.859L255.698 276.738Z"
                  fill="#00E1CA" fill-opacity="0.3" />
              </g>
              <path
                d="M353.634 203.481L353.632 203.48L307.416 198.635L265.676 110.193L357.145 122.536L398.726 208.39L353.634 203.481ZM264.645 110.678L306.385 199.121L255.715 275.691L215.873 189.021L264.645 110.678ZM398.72 209.532L349.071 288.233L256.681 276.292L307.321 199.767L353.508 204.609L353.511 204.61L398.72 209.532Z"
                stroke="#F1EFFC" stroke-width="1.13749" />
              <g id="cube-2" class="js-top-logos">
                <path
                  d="M140.665 464.482L192.667 384.6L232.268 474.042L178.418 552.122L140.665 464.482ZM179.383 552.725L233.196 474.701L325.657 483.964L272.791 564.188L179.383 552.725ZM286.215 395.972L325.721 482.829L233.305 473.57L193.693 384.101L286.215 395.972Z"
                  fill="#00E1CA" stroke="#505050" stroke-width="1.13749" />
                <g class="def">
                  <g class="a">
                    <path
                      d="M179.974 491.563C180.745 492.519 181.799 493.063 182.905 493.077C184.011 493.09 185.078 492.571 185.871 491.634L190.358 486.332C191.152 485.395 191.606 484.116 191.623 482.777C191.639 481.438 190.814 479.868 190.444 479.193L182.292 458.957C181.521 458.001 180.467 457.457 179.361 457.443C178.255 457.43 177.188 457.949 176.395 458.886L171.907 464.188C171.114 465.125 170.659 466.404 170.643 467.743C170.627 469.082 171.051 470.371 171.822 471.327L179.974 491.563ZM179.739 454.935L183.873 450.051C184.666 449.113 185.733 448.594 186.839 448.607C187.945 448.621 189.966 449.856 190.737 450.812L194.362 455.588C194.94 456.305 195.503 457.727 195.835 459.273C196.167 460.819 196.3 462.151 196.111 463.855C195.922 465.559 194.719 469.581 194.628 470.404C194.536 471.226 194.161 472.935 194.931 473.891C195.702 474.847 196.126 476.137 196.11 477.476C196.094 478.814 195.639 480.093 194.845 481.031L193.703 482.381C193.243 480.641 192.488 479.048 191.94 477.425L183.787 457.19C182.716 455.858 181.274 455.054 179.739 454.935Z"
                      fill="#505050" />
                  </g>
                  <g clip-path="url(#clip1_57_3)" class="b">
                    <path
                      d="M198.141 448.769C192.751 438.558 182.257 437.359 174.704 446.092C167.151 454.825 165.397 470.186 170.786 480.397C176.175 490.609 186.669 491.807 194.222 483.074C201.776 474.341 203.53 458.98 198.141 448.769ZM196.597 474.254L192.764 470.511C193.344 469.003 193.742 467.373 193.938 465.658C194.134 463.942 194.114 462.264 193.889 460.664L198.467 457.882C198.924 460.518 198.995 463.334 198.674 466.191C198.34 469.062 197.637 471.789 196.597 474.254ZM178.602 471.361C176.293 466.986 177.045 460.4 180.281 456.658C183.517 452.917 188.016 453.431 190.325 457.806C192.634 462.181 191.882 468.766 188.646 472.508C185.41 476.25 180.911 475.736 178.602 471.361ZM186.839 443.786C188.795 444.009 190.618 444.799 192.235 446.093L189.304 451.995C188.309 451.284 187.214 450.849 186.042 450.715C184.87 450.581 183.705 450.758 182.576 451.227L181.051 444.816C182.928 443.921 184.887 443.57 186.839 443.786ZM172.33 454.912L176.163 458.655C175.583 460.163 175.184 461.793 174.988 463.509C174.793 465.224 174.813 466.902 175.038 468.502L170.46 471.284C170.003 468.649 169.932 465.832 170.253 462.976C170.586 460.105 171.29 457.377 172.33 454.912ZM182.088 485.381C180.131 485.157 178.308 484.367 176.691 483.073L179.623 477.171C180.618 477.882 181.713 478.317 182.885 478.451C184.056 478.585 185.221 478.408 186.351 477.94L187.876 484.351C185.999 485.246 184.04 485.596 182.088 485.381Z"
                      fill="#505050" />
                  </g>
                  <g class="c">
                    <path
                      d="M192.611 490.894C194.717 487.766 194.808 481.449 192.835 472.885L193.957 471.219C194.161 470.928 194.319 470.546 194.413 470.119C194.507 469.693 194.533 469.241 194.487 468.816L192.129 448.17C192.093 447.85 192.017 447.555 191.907 447.306C191.797 447.058 191.655 446.861 191.491 446.73L180.946 438.275C180.728 438.106 180.481 438.059 180.234 438.14C179.987 438.221 179.75 438.427 179.553 438.732L178.414 440.424C174.233 435.139 170.828 433.958 168.74 437.057C167.621 438.719 166.509 442.265 167.533 449.636C167.804 451.497 168.144 453.312 168.551 455.07L166.718 457.792C166.514 458.083 166.356 458.465 166.262 458.891C166.168 459.317 166.142 459.77 166.188 460.194L168.546 480.84C168.582 481.159 168.657 481.453 168.767 481.7C168.877 481.949 169.019 482.145 169.183 482.276L179.729 490.733C179.946 490.903 180.193 490.95 180.441 490.869C180.688 490.788 180.924 490.583 181.122 490.278L182.961 487.547C186.612 492.183 190.249 494.401 192.611 490.894ZM189.688 450.621L191.383 465.425L183.796 459.369L182.121 444.537L189.688 450.621ZM170.706 475.934L170.274 472.158L172.522 473.237L170.706 475.934ZM172.832 468.467L174.802 465.542L174.906 469.462L172.832 468.467ZM177.269 460.464C177.26 460.054 177.188 459.668 177.06 459.349C176.933 459.031 176.754 458.791 176.544 458.657C176.332 458.523 176.097 458.499 175.865 458.589C175.633 458.679 175.411 458.878 175.225 459.166L173.513 461.709C172.875 459.884 172.293 457.991 171.768 456.039L179.432 444.658L181.185 460.373L177.416 465.97L177.269 460.464ZM170.291 440.556C171.038 439.448 173.135 440.002 176.217 443.686L170.748 451.807C169.48 445.788 169.506 441.723 170.291 440.556ZM169.614 459.237C170.106 461.022 170.726 462.973 171.384 464.87L169.742 467.308L168.933 460.249L169.614 459.237ZM180.264 485.806L172.243 479.399L175.447 474.64L175.812 474.815C176.015 474.912 176.234 474.914 176.449 474.822C176.664 474.729 176.868 474.543 177.044 474.283C177.22 474.022 177.361 473.694 177.455 473.328C177.549 472.962 177.592 472.569 177.582 472.186L177.564 471.497L182.722 463.839L190.764 470.214L183.098 481.597C181.769 479.679 180.52 477.596 179.359 475.359C179.248 475.149 179.112 474.986 178.959 474.878C178.807 474.77 178.64 474.719 178.469 474.729C178.299 474.74 178.127 474.81 177.965 474.937C177.802 475.064 177.652 475.245 177.522 475.47C177.272 475.9 177.112 476.467 177.073 477.057C177.034 477.647 177.12 478.217 177.314 478.655C177.334 478.699 177.342 478.714 177.364 478.756C178.486 480.9 179.683 482.914 180.95 484.787L180.264 485.806ZM185.148 484.3L190.639 476.146C191.979 482.417 191.832 486.303 191.074 487.429C190.282 488.606 188.104 487.812 185.149 484.299L185.148 484.3Z"
                      fill="#505050" />
                  </g>
                </g>
                <g class="act">
                  <rect width="43.9148" height="40.5367"
                    transform="matrix(0.42383 0.905742 -0.549072 0.835775 188.263 439.383)" fill="url(#pattern1)" />
                </g>
              </g>
              <path
                d="M618.665 248.953L662.306 333.835L567.818 325.551L523.963 238.104L618.665 248.953ZM522.925 238.577L566.793 326.048L515.024 403.156L473.108 317.433L522.925 238.577ZM611.628 414.154L515.942 403.829L567.736 326.684L662.299 334.975L611.628 414.154Z"
                fill="#968CFF" stroke="#505050" stroke-width="1.13749" />
              <path
                d="M439.309 269.024L460.862 313.318L409.119 390.409L368.242 304.207L418.06 225.357L439.309 269.024ZM419.095 224.879L512.703 236.232L555.313 321.607L461.891 312.827L440.334 268.527L419.095 224.879ZM461.802 313.959L555.298 322.746L504.621 401.93L410.106 390.98L461.802 313.959Z"
                fill="#FFD51C" stroke="#505050" stroke-width="1.13749" />
              <g class="js-top-logos">
                <path
                  d="M199.755 375.431L250.667 296.066L291.328 385.016L238.541 462.59L199.755 375.431ZM239.509 463.189L292.26 385.669L384.703 394.945L332.923 474.651L239.509 463.189ZM344.211 307.444L384.746 393.807L292.363 384.537L251.696 295.575L344.211 307.444Z"
                  fill="#FFD51C" stroke="#505050" stroke-width="1.13749" />
                <g class="def">
                  <g class="a">
                    <path fill-rule="evenodd" clip-rule="evenodd"
                      d="M242.143 403.408L229.183 380.152C228.257 378.492 227.784 376.282 227.866 374.01C227.948 371.738 228.58 369.59 229.622 368.037L244.28 346.199C245.477 344.415 247.29 345.171 247.855 347.372C247.936 347.687 247.99 348.031 248.014 348.402L248.048 348.924C248.134 350.191 248.46 351.372 248.981 352.305C249.502 353.237 250.193 353.873 250.957 354.125C252.027 354.482 252.994 355.377 253.724 356.686C254.453 357.995 254.909 359.652 255.027 361.428C255.109 362.695 255.433 363.878 255.952 364.814C256.471 365.749 257.161 366.389 257.924 366.645L258.239 366.749C260.026 367.338 260.604 370.993 259.234 373.033L250.751 385.672L254.24 391.934C254.439 392.29 254.54 392.763 254.522 393.25C254.505 393.737 254.369 394.197 254.146 394.53L247.972 403.729C247.153 404.948 246.079 405.6 244.986 405.54C243.893 405.48 242.87 404.713 242.143 403.408ZM249.316 388.628L243.984 396.573C243.612 397.127 243.386 397.895 243.357 398.706C243.327 399.517 243.497 400.307 243.827 400.9C244.158 401.493 244.622 401.841 245.119 401.868C245.616 401.896 246.104 401.6 246.476 401.045L251.809 393.101L249.316 388.628ZM249.85 373.917C250.073 373.585 250.209 373.124 250.226 372.637C250.244 372.15 250.143 371.677 249.944 371.321L243.963 360.588C243.764 360.232 243.485 360.023 243.187 360.006C242.889 359.99 242.596 360.168 242.373 360.5C242.15 360.833 242.014 361.293 241.997 361.78C241.979 362.267 242.08 362.74 242.279 363.096L248.26 373.83C248.459 374.186 248.738 374.395 249.036 374.411C249.334 374.428 249.627 374.25 249.85 373.917ZM245.485 377.146C245.709 376.813 245.844 376.353 245.862 375.866C245.879 375.379 245.778 374.906 245.58 374.55L240.595 365.605C240.396 365.249 240.118 365.04 239.819 365.024C239.521 365.007 239.228 365.185 239.005 365.518C238.782 365.85 238.646 366.311 238.629 366.798C238.611 367.285 238.713 367.758 238.911 368.114L243.896 377.059C244.094 377.414 244.373 377.623 244.671 377.64C244.969 377.656 245.262 377.479 245.485 377.146ZM243.209 381.356C243.407 381.712 243.509 382.185 243.491 382.672C243.473 383.159 243.338 383.62 243.115 383.952C242.891 384.285 242.598 384.463 242.3 384.446C242.002 384.43 241.723 384.221 241.525 383.865L235.543 373.131C235.345 372.775 235.243 372.302 235.261 371.815C235.279 371.328 235.414 370.868 235.637 370.535C235.861 370.203 236.154 370.025 236.452 370.041C236.75 370.058 237.029 370.267 237.227 370.623L243.209 381.356Z"
                      fill="#505050" />
                  </g>
                  <g clip-path="url(#clip2_57_3)" class="b">
                    <path
                      d="M233.806 395.799L236.008 392.719L246.063 393.106L245.844 399.442L235.741 399.053L233.806 395.799ZM247.23 399.538L247.498 393.204L248.861 393.262C249.25 393.278 249.574 393.503 249.832 393.937C250.09 394.371 250.199 394.873 250.159 395.444L250.045 397.566C250.004 398.137 249.841 398.622 249.556 399.021C249.271 399.42 248.95 399.611 248.593 399.595L247.23 399.538ZM226.771 377.587C226.27 376.745 226.044 375.74 226.094 374.572C226.143 373.403 226.453 372.422 227.023 371.627L239.462 354.238C240.032 353.441 240.699 353.058 241.462 353.091C242.225 353.123 242.857 353.56 243.356 354.402L248.821 363.59L248.569 369.551L255.855 381.801C256.356 382.643 256.582 383.648 256.533 384.817C256.483 385.985 256.174 386.967 255.604 387.762L252.572 392C252.101 391.209 251.573 390.521 250.988 389.937C250.403 389.353 249.753 389.046 249.04 389.015L233.215 388.421L226.771 377.587Z"
                      fill="#505050" />
                  </g>
                  <g clip-path="url(#clip0_58_65)" class="c">
                    <path
                      d="M244.485 359.404C242.393 354.885 238.511 354.624 235.832 358.821L228.544 370.241C225.864 374.439 225.387 381.531 227.479 386.051L236.965 406.54C239.058 411.06 242.94 411.321 245.619 407.123L252.907 395.703C255.587 391.505 256.064 384.413 253.972 379.894L250.177 371.698L251.73 369.265C252.716 369.824 253.875 369.44 254.77 368.037C256.11 365.938 256.349 362.392 255.302 360.132C254.256 357.872 252.315 357.742 250.976 359.841C250.08 361.244 249.69 363.288 249.833 365.167L248.28 367.6L244.485 359.404ZM251.542 383.701C252.589 385.961 252.35 389.506 251.01 391.605L243.722 403.025C242.382 405.124 240.441 404.994 239.395 402.734L229.909 382.244C228.862 379.984 229.101 376.439 230.441 374.339L237.729 362.919C239.069 360.82 241.01 360.951 242.056 363.211L251.542 383.701Z"
                      fill="#505050" />
                    <path
                      d="M237.88 376.825C238.927 379.088 240.865 379.219 242.206 377.117C243.548 375.014 243.786 371.475 242.739 369.212C241.691 366.949 239.754 366.818 238.412 368.921C237.07 371.023 236.832 374.562 237.88 376.825Z"
                      fill="#505050" />
                    <path
                      d="M243.571 389.119C244.619 391.382 246.556 391.513 247.898 389.41C249.24 387.308 249.478 383.769 248.43 381.506C247.382 379.243 245.445 379.112 244.103 381.214C242.762 383.317 242.523 386.856 243.571 389.119Z"
                      fill="#505050" />
                    <path
                      d="M240.193 390.877L236.399 382.681C235.875 381.549 234.906 381.484 234.235 382.535C233.564 383.586 233.445 385.356 233.969 386.487L237.764 394.683C238.287 395.815 239.256 395.88 239.927 394.829C240.598 393.778 240.717 392.008 240.193 390.877Z"
                      fill="#505050" />
                  </g>
                </g>
                <g class="act">
                  <rect width="46.9839" height="43.3697"
                    transform="matrix(0.413899 0.910323 -0.54376 0.83924 249.36 339.161)" fill="url(#pattern2)" />
                </g>
              </g>
              <g class="js-top-logos">
                <path
                  d="M404.571 221.164L446.147 307.03L353.805 297.745L312.072 209.293L404.571 221.164ZM311.04 209.778L352.774 298.229L301.072 375.289L261.239 288.614L311.04 209.778ZM395.453 387.35L302.043 375.883L353.709 298.877L446.125 308.169L395.453 387.35Z"
                  fill="#00E1CA" stroke="#505050" stroke-width="1.13749" />
                <g class="def">
                  <g class="a">
                    <path
                      d="M375.476 240.71C379.289 241.263 382.001 241.66 384.175 242.21C386.3 242.749 387.678 243.382 388.886 244.278C390.278 245.31 391.028 246.064 391.839 247.329C392.754 248.756 393.687 250.735 395.333 254.248C395.504 254.612 395.825 254.984 396.227 255.282C396.629 255.58 397.078 255.78 397.476 255.838C397.874 255.895 398.187 255.806 398.348 255.589C398.509 255.373 398.503 255.047 398.333 254.683L398.25 254.507C396.707 251.214 395.662 248.985 394.571 247.285C393.36 245.396 392.053 244.096 390.099 242.646C387.958 241.057 385.777 240.176 383.298 239.547C380.887 238.937 377.977 238.515 374.301 237.982L374.189 237.966C373.792 237.908 373.478 237.997 373.317 238.214C373.157 238.43 373.162 238.756 373.333 239.12C373.503 239.484 373.825 239.856 374.227 240.154C374.629 240.453 375.078 240.652 375.476 240.71ZM361.34 258.272C361.738 258.33 362.187 258.53 362.589 258.828C362.991 259.126 363.312 259.498 363.483 259.862C365.129 263.375 366.062 265.354 366.977 266.781C367.79 268.046 368.538 268.799 369.929 269.832C371.138 270.728 372.516 271.361 374.643 271.9C376.817 272.45 379.527 272.847 383.34 273.4C383.738 273.457 384.187 273.657 384.589 273.955C384.991 274.253 385.312 274.625 385.483 274.989C385.654 275.353 385.659 275.679 385.498 275.896C385.338 276.112 385.024 276.202 384.626 276.144L384.514 276.128C380.839 275.595 377.927 275.173 375.518 274.563C373.039 273.934 370.857 273.051 368.717 271.465C366.762 270.014 365.456 268.714 364.244 266.824C363.153 265.125 362.108 262.894 360.565 259.603L360.483 259.427C360.313 259.063 360.307 258.737 360.468 258.52C360.628 258.304 360.942 258.214 361.34 258.272ZM401.335 264.071C401.732 264.129 402.182 264.329 402.583 264.627C402.985 264.925 403.307 265.297 403.477 265.661L403.56 265.836C405.103 269.13 406.148 271.358 406.607 272.967C407.119 274.755 406.929 275.837 406.148 276.891C405.293 278.046 403.679 278.376 401.471 278.325C399.322 278.275 396.413 277.853 392.737 277.32L392.625 277.304C392.227 277.246 391.778 277.046 391.376 276.748C390.974 276.45 390.653 276.078 390.482 275.714C390.312 275.35 390.306 275.024 390.467 274.807C390.628 274.591 390.941 274.502 391.339 274.559C395.153 275.112 397.86 275.501 399.798 275.547C401.692 275.591 402.634 275.295 403.117 274.644C403.673 273.894 403.775 273.264 403.432 272.066C403.045 270.716 402.124 268.739 400.478 265.226C400.307 264.862 400.302 264.536 400.462 264.319C400.623 264.103 400.937 264.013 401.335 264.071ZM366.079 236.79L366.191 236.806C366.588 236.864 367.038 237.063 367.439 237.362C367.841 237.66 368.163 238.032 368.333 238.396C368.504 238.76 368.51 239.086 368.349 239.302C368.188 239.519 367.875 239.608 367.477 239.55C363.663 238.997 360.957 238.609 359.018 238.563C357.124 238.518 356.182 238.815 355.699 239.466C355.142 240.216 355.041 240.846 355.384 242.043C355.771 243.394 356.692 245.371 358.338 248.884C358.508 249.248 358.514 249.574 358.353 249.79C358.193 250.007 357.879 250.096 357.481 250.039C357.083 249.981 356.634 249.781 356.232 249.483C355.83 249.185 355.509 248.813 355.338 248.449L355.256 248.273C353.713 244.98 352.668 242.751 352.209 241.143C351.697 239.355 351.887 238.272 352.668 237.219C353.523 236.064 355.137 235.733 357.345 235.784C359.493 235.835 362.403 236.257 366.079 236.79ZM378.336 254.768C377.673 254.672 377.15 254.82 376.882 255.181C376.615 255.542 376.624 256.086 376.908 256.692C377.192 257.299 377.728 257.919 378.398 258.416C379.068 258.913 379.817 259.246 380.48 259.342C381.143 259.438 381.666 259.289 381.933 258.928C382.201 258.567 382.192 258.024 381.908 257.417C381.623 256.811 381.087 256.191 380.418 255.694C379.748 255.197 378.999 254.864 378.336 254.768Z"
                      fill="#505050" />
                    <path fill-rule="evenodd" clip-rule="evenodd"
                      d="M368.96 259.053C367.179 257.618 366.289 256.901 365.41 255.025C364.531 253.15 364.829 252.605 365.427 251.515C366.621 249.338 369.265 247.057 375.121 247.906C380.974 248.755 386.299 252.191 389.856 255.057C391.638 256.492 392.527 257.209 393.406 259.085C394.285 260.96 393.987 261.505 393.389 262.595C392.195 264.772 389.551 267.052 383.695 266.203C377.842 265.355 372.517 261.919 368.96 259.053ZM373.909 256.258C373.283 254.923 373.263 253.727 373.852 252.933C374.441 252.139 375.592 251.812 377.05 252.023C378.509 252.235 380.156 252.968 381.629 254.061C383.103 255.154 384.282 256.518 384.907 257.852C385.533 259.187 385.553 260.383 384.964 261.177C384.375 261.971 383.225 262.298 381.766 262.087C380.308 261.875 378.66 261.142 377.187 260.049C375.713 258.956 374.534 257.592 373.909 256.258Z"
                      fill="#505050" />
                  </g>
                  <g clip-path="url(#clip3_57_3)" class="b">
                    <path
                      d="M383.354 239.765L379.065 239.201C378.497 239.126 378.046 239.261 377.813 239.577C377.58 239.892 377.584 240.363 377.823 240.884L393.138 274.29L401.715 275.42L386.4 242.013C386.161 241.492 385.705 240.962 385.134 240.541C384.563 240.119 383.923 239.84 383.354 239.765ZM375.897 249.867L371.608 249.303C371.039 249.228 370.589 249.363 370.356 249.679C370.123 249.995 370.126 250.465 370.365 250.986L380.273 272.597L388.85 273.726L378.942 252.116C378.703 251.594 378.248 251.064 377.677 250.643C377.106 250.221 376.465 249.942 375.897 249.867ZM368.439 259.97L364.15 259.405C363.582 259.33 363.131 259.465 362.898 259.781C362.665 260.097 362.668 260.567 362.908 261.089L367.407 270.903L375.984 272.032L371.485 262.218C371.246 261.696 370.79 261.167 370.219 260.745C369.648 260.323 369.008 260.044 368.439 259.97Z"
                      fill="#505050" />
                  </g>
                  <g class="c">
                    <path fill-rule="evenodd" clip-rule="evenodd"
                      d="M381.886 243.157C381.431 242.187 380.563 241.199 379.473 240.412C378.382 239.625 377.159 239.102 376.071 238.959L359.669 236.8C358.581 236.656 357.719 236.904 357.271 237.489C356.824 238.074 356.828 238.948 357.282 239.918L362.997 252.111C363.452 253.081 364.32 254.069 365.41 254.856C366.501 255.643 367.724 256.166 368.812 256.309L385.214 258.468C386.302 258.612 387.164 258.364 387.612 257.779C388.059 257.194 388.055 256.32 387.601 255.35L381.886 243.157ZM373.159 268.323C372.705 267.352 371.837 266.365 370.746 265.578C369.656 264.791 368.432 264.268 367.344 264.125L363.244 263.585C362.156 263.442 361.294 263.69 360.846 264.274C360.399 264.859 360.403 265.733 360.857 266.703L362.572 270.361C363.026 271.331 363.895 272.318 364.985 273.106C366.076 273.893 367.299 274.416 368.387 274.559L372.487 275.099C373.575 275.242 374.437 274.994 374.885 274.409C375.332 273.824 375.328 272.951 374.874 271.981L373.159 268.323ZM388.878 270.392C388.424 269.422 387.556 268.434 386.465 267.647C385.375 266.86 384.151 266.337 383.063 266.194L378.963 265.654C377.875 265.511 377.013 265.759 376.565 266.344C376.118 266.929 376.122 267.802 376.577 268.772L378.291 272.43C378.746 273.401 379.614 274.388 380.704 275.175C381.795 275.962 383.018 276.485 384.106 276.628L388.206 277.168C389.294 277.311 390.156 277.063 390.604 276.478C391.051 275.894 391.047 275.02 390.593 274.05L388.878 270.392ZM404.597 272.461C404.143 271.491 403.275 270.504 402.184 269.717C401.094 268.929 399.87 268.407 398.782 268.264L394.682 267.724C393.594 267.58 392.732 267.829 392.284 268.413C391.837 268.998 391.841 269.872 392.296 270.842L394.01 274.5C394.465 275.47 395.333 276.457 396.423 277.245C397.514 278.032 398.737 278.555 399.825 278.698L403.925 279.238C405.013 279.381 405.875 279.133 406.323 278.548C406.77 277.963 406.766 277.09 406.312 276.119L404.597 272.461Z"
                      fill="#505050" />
                  </g>
                </g>
                <g class="act">
                  <rect width="42.9095" height="39.6088" transform="matrix(0.993068 0.117537 0.424357 0.905495 354 239)"
                    fill="url(#pattern3)" />
                </g>
              </g>
              <g filter="url(#filter3_b_17_26)">
                <path
                  d="M434.603 675.113L532.562 685.197L587.192 603.398L545.037 516.347L447.923 505.846L394.128 587.359L434.52 675.239L434.603 675.113Z"
                  fill="#00E1CA" fill-opacity="0.3" />
              </g>
              <path
                d="M447.84 507.004L489.587 595.467L434.621 674.094L394.777 587.407L447.84 507.004ZM448.871 506.519L544.66 516.878L586.246 602.751L490.618 594.982L448.871 506.519ZM490.522 596.114L586.183 603.885L532.279 684.597L435.622 674.648L490.522 596.114Z"
                stroke="#F1EFFC" stroke-width="1.13749" />
              <path
                d="M437.556 507.726L478.083 594.103L383.555 585.821L342.898 496.842L437.556 507.726ZM341.869 497.333L382.521 586.299L327.588 664.903L288.81 577.727L341.869 497.333ZM424.105 675.95L328.575 665.476L383.452 586.952L478.013 595.237L424.105 675.95Z"
                fill="#FFD51C" stroke="#505050" stroke-width="1.13749" />
              <g id="cube-3">
                <g filter="url(#filter4_b_17_26)">
                  <path
                    d="M221.338 654.789L317.083 665.911L371.718 584.113L331.673 496.07L236.775 484.526L182.975 566.042L221.258 654.911L221.338 654.789Z"
                    fill="#00E1CA" fill-opacity="0.3" />
                </g>
                <path
                  d="M331.286 496.595L370.793 583.454L324.588 579.03L277.732 574.544L237.706 485.212L331.286 496.595ZM236.678 485.705L276.695 575.017L221.376 653.746L183.62 566.098L236.678 485.705ZM316.803 665.307L222.352 654.335L277.622 575.675L324.477 580.161L370.718 584.588L316.803 665.307Z"
                  stroke="#F1EFFC" stroke-width="1.13749" />
              </g>
              <path
                d="M506.79 421.565L549.182 509.736L495.712 587.642L454.833 501.439L506.79 421.565ZM507.822 421.081L603.6 431.441L646.219 516.825L550.21 509.245L507.822 421.081ZM550.121 510.377L646.174 517.961L593.369 598.148L496.713 588.194L550.121 510.377Z"
                fill="#FFD51C" stroke="#505050" stroke-width="1.13749" />
              <g id="cube-4" class="js-top-logos">
                <path
                  d="M486.054 584.944L390.517 574.474L444.313 496.459L538.857 504.754L486.054 584.944ZM538.906 503.618L444.41 495.328L402.678 406.864L497.335 417.742L538.906 503.618ZM349.692 487.219L401.647 407.349L443.378 495.812L389.524 573.909L349.692 487.219Z"
                  fill="#00E1CA" stroke="#505050" stroke-width="1.13749" />
                <g class="def">
                  <g clip-path="url(#clip1_17_26)" class="a">
                    <path
                      d="M481.439 533.265L480.64 533.221C481.224 530.983 480.818 528.958 479.48 527.429C478.142 525.901 475.938 524.945 473.176 524.696C465.827 524.02 456.444 528.413 452.255 534.489L452.098 534.721C449.909 534.954 447.586 535.719 445.493 536.896C443.399 538.073 441.653 539.594 440.528 541.222C437.736 545.273 439.449 548.934 444.349 549.384L455.454 550.404L461.259 541.983L456.751 544.093C456.427 544.246 456.089 544.359 455.755 544.427C455.422 544.495 455.1 544.516 454.808 544.489C454.516 544.462 454.26 544.388 454.055 544.271C453.849 544.153 453.698 543.995 453.61 543.805C453.521 543.616 453.497 543.398 453.539 543.165C453.581 542.932 453.688 542.688 453.854 542.447C454.02 542.206 454.242 541.972 454.508 541.76C454.773 541.547 455.076 541.36 455.4 541.208L465.857 536.313C466.182 536.161 466.52 536.048 466.854 535.98C467.187 535.912 467.51 535.891 467.802 535.918C468.094 535.945 468.35 536.019 468.556 536.137C468.762 536.254 468.914 536.412 469.002 536.602L471.867 542.721C472.046 543.104 471.958 543.592 471.622 544.079C471.287 544.566 470.731 545.012 470.077 545.318C469.423 545.624 468.725 545.766 468.136 545.711C467.547 545.657 467.115 545.412 466.936 545.029L465.701 542.391L459.896 550.813L468.78 551.629C474.904 552.192 482.725 548.53 486.215 543.468C489.705 538.405 487.562 533.828 481.439 533.265Z"
                      fill="#505050" />
                  </g>
                  <g clip-path="url(#clip4_57_3)" class="b">
                    <path
                      d="M450.4 536.212C451.669 534.373 453.392 532.599 455.456 531.004C457.52 529.408 459.879 528.028 462.38 526.951C464.881 525.875 467.469 525.127 469.975 524.756C472.48 524.385 474.848 524.399 476.924 524.798C479.001 525.196 480.739 525.97 482.027 527.07C483.315 528.169 484.123 529.569 484.399 531.178C484.675 532.788 484.413 534.571 483.63 536.412C482.846 538.253 481.56 540.111 479.853 541.866L476.422 536.924C474.49 534.139 467.578 535.771 464.909 539.642L457.226 550.782L457.22 550.782C454.545 550.539 452.299 549.74 450.693 548.459L443.457 549.445C443.134 549.489 442.837 549.468 442.598 549.385C442.359 549.301 442.186 549.159 442.099 548.972C442.011 548.785 442.012 548.561 442.101 548.324C442.191 548.087 442.365 547.846 442.605 547.626L448.003 542.693C448.053 540.644 448.877 538.414 450.4 536.212ZM473.015 538.77L482.318 552.165C483.242 553.496 480.643 555.72 478.407 555.515L468.936 554.644C468.69 554.622 468.415 554.647 468.133 554.718C467.85 554.789 467.568 554.903 467.309 555.052L458.882 559.869C456.471 561.248 454.123 560.177 455.423 558.291L468.084 539.934C468.341 539.562 468.721 539.209 469.178 538.916C469.636 538.624 470.153 538.404 470.67 538.282C471.187 538.16 471.682 538.141 472.097 538.228C472.513 538.314 472.833 538.502 473.018 538.77L473.015 538.77Z"
                      fill="#505050" />
                  </g>
                  <g clip-path="url(#clip2_58_65)" class="c">
                    <path
                      d="M469.145 532.24C470.172 531.782 470.978 530.998 471.096 530.254C471.161 529.806 471.201 529.364 471.201 528.936L471.193 528.474C471.174 528.044 471.12 527.621 471.036 527.212C470.897 526.551 470.066 526.271 469.035 526.447L465.809 526.989C465.251 526.192 464.453 525.513 463.443 525.014L464.422 522.61C464.742 521.839 464.447 521.183 463.598 521.022C463.01 520.898 462.384 520.815 461.727 520.763L461.66 520.758C461.003 520.706 460.334 520.688 459.654 520.703C458.686 520.721 457.585 521.276 456.904 522.01L454.741 524.329C453.186 524.635 451.624 525.119 450.115 525.754L447.879 524.79C447.172 524.478 446.071 524.605 445.11 525.18C444.518 525.536 443.934 525.909 443.364 526.292L442.788 526.7C442.247 527.085 441.724 527.489 441.21 527.911C440.382 528.59 440.117 529.416 440.457 529.991L441.53 531.769C441.061 532.306 440.625 532.87 440.241 533.448C439.857 534.025 439.536 534.599 439.275 535.16L436.06 536.601C435.033 537.06 434.227 537.843 434.109 538.587C434.044 539.035 434.004 539.477 433.999 539.913L434.008 540.359C434.021 540.796 434.081 541.212 434.174 541.621C434.313 542.283 435.144 542.562 436.175 542.386L439.402 541.844C439.959 542.641 440.758 543.32 441.768 543.819L440.783 546.232C440.463 547.002 440.758 547.659 441.607 547.819C442.211 547.935 442.846 548.02 443.512 548.072C444.178 548.125 444.857 548.144 445.547 548.13C446.514 548.112 447.615 547.556 448.296 546.823L450.459 544.503C452.014 544.198 453.577 543.713 455.086 543.079L457.306 544.049C458.013 544.362 459.114 544.234 460.076 543.66C460.668 543.304 461.246 542.939 461.812 542.547L462.403 542.132C462.944 541.746 463.467 541.342 463.976 540.929C464.804 540.25 465.069 539.423 464.729 538.849L463.656 537.07C464.13 536.526 464.566 535.961 464.95 535.384C465.334 534.807 465.655 534.233 465.917 533.672L469.131 532.23L469.145 532.24ZM447.967 534.056C448.655 533.021 449.804 532.066 451.16 531.403C452.517 530.739 453.969 530.421 455.199 530.518C456.428 530.614 457.334 531.118 457.716 531.919C458.099 532.719 457.927 533.75 457.238 534.785C456.55 535.821 455.401 536.775 454.045 537.438C452.689 538.102 451.236 538.42 450.006 538.324C448.777 538.227 447.871 537.723 447.489 536.922C447.106 536.122 447.278 535.091 447.967 534.056ZM468.342 563.426C468.566 564.051 469.371 564.354 470.421 564.12C471.057 563.974 471.695 563.81 472.329 563.62L473.018 563.409C473.663 563.203 474.315 562.972 474.958 562.723C476 562.318 476.783 561.524 476.98 560.769L477.607 558.405C479.035 557.602 480.396 556.657 481.583 555.621L484.723 555.346C485.724 555.262 486.828 554.733 487.443 553.977C487.883 553.438 488.289 552.888 488.662 552.327C489.035 551.766 489.365 551.21 489.65 550.659C490.052 549.887 489.717 549.244 488.931 549.02L486.456 548.294C486.693 547.175 486.667 546.129 486.396 545.192L488.819 542.97C489.595 542.261 489.895 541.429 489.469 540.907C489.205 540.587 488.91 540.282 488.595 539.991L488.245 539.707C487.914 539.442 487.547 539.199 487.149 538.971C486.509 538.604 485.402 538.756 484.4 539.285L481.287 540.939C480.69 540.798 480.046 540.696 479.36 540.642C478.675 540.588 477.966 540.584 477.25 540.622L476.538 538.666C476.314 538.041 475.509 537.738 474.459 537.972C473.823 538.119 473.186 538.282 472.542 538.471L471.877 538.676C471.222 538.881 470.58 539.113 469.932 539.37C468.889 539.775 468.107 540.57 467.91 541.324L467.283 543.688C465.855 544.491 464.494 545.436 463.307 546.473L460.172 546.739C459.171 546.823 458.067 547.352 457.452 548.108C457.013 548.647 456.606 549.197 456.233 549.758C455.86 550.319 455.531 550.875 455.246 551.426C454.843 552.198 455.178 552.841 455.964 553.065L458.445 553.782C458.208 554.902 458.234 555.948 458.505 556.885L456.082 559.107C455.305 559.816 455.006 560.648 455.432 561.169C455.696 561.49 455.981 561.795 456.312 562.077L456.665 562.37C456.997 562.636 457.364 562.879 457.751 563.106C458.391 563.473 459.499 563.321 460.501 562.792L463.614 561.137C464.211 561.279 464.855 561.381 465.54 561.434C466.226 561.488 466.935 561.493 467.651 561.455L468.362 563.411L468.342 563.426ZM475.039 547.139C475.648 547.187 476.183 547.335 476.615 547.576C477.047 547.816 477.367 548.144 477.556 548.54C477.746 548.937 477.801 549.394 477.719 549.886C477.637 550.377 477.419 550.894 477.079 551.407C476.738 551.919 476.28 552.418 475.732 552.873C475.184 553.328 474.557 553.731 473.885 554.06C473.214 554.388 472.511 554.636 471.818 554.788C471.126 554.939 470.456 554.993 469.847 554.945C469.238 554.897 468.702 554.749 468.27 554.508C467.838 554.268 467.519 553.94 467.329 553.544C467.14 553.148 467.085 552.691 467.167 552.199C467.249 551.707 467.466 551.19 467.807 550.677C468.148 550.165 468.606 549.667 469.154 549.211C469.701 548.756 470.329 548.353 471.001 548.024C471.672 547.696 472.374 547.449 473.067 547.297C473.76 547.145 474.43 547.091 475.039 547.139Z"
                      fill="#505050" />
                  </g>
                </g>
                <g class="act">
                  <rect width="45.0613" height="41.595"
                    transform="matrix(0.995805 0.0915016 -0.560784 0.827963 460.487 524.894)" fill="url(#pattern4)" />
                </g>
              </g>
              <path
                d="M246.762 474.435L298.718 394.569L339.384 483.522L285.554 561.599L246.762 474.435ZM286.533 562.182L340.316 484.174L433.794 492.965L380.985 573.16L286.533 562.182ZM393.312 405.463L433.85 491.83L340.419 483.043L299.746 394.078L393.312 405.463Z"
                fill="#968CFF" stroke="#505050" stroke-width="1.13749" />
              <g id="cube-1">
                <g filter="url(#filter5_b_17_26)">
                  <path
                    d="M555.834 499.678L654.206 509.806L706.856 428.7L662.415 342.269L564.893 331.721L513.087 412.537L555.755 499.801L555.834 499.678Z"
                    fill="#B297FF" fill-opacity="0.3" />
                </g>
                <path
                  d="M610.02 420.053L609.823 420.037L565.87 332.398L662.048 342.801L705.88 428.049L610.02 420.053ZM564.832 332.87L609.027 420.992L555.838 498.673L513.739 412.574L564.832 332.87ZM705.862 429.187L653.918 509.205L556.848 499.212L610.254 421.212L705.862 429.187Z"
                  stroke="#F1EFFC" stroke-width="1.13749" />
              </g>
              <g class="js-top-logos">
                <path
                  d="M411.845 399.674L462.718 320.316L505.405 408.04L452.72 485.874L411.845 399.674ZM453.712 486.438L506.345 408.681L601.012 417.218L549.284 496.897L453.712 486.438ZM558.425 330.704L601.037 416.08L506.434 407.549L463.753 319.837L558.425 330.704Z"
                  fill="#00E1CA" stroke="#505050" stroke-width="1.13749" />
                <g class="def">
                  <path d="M514.694 325.769L527.965 353.269M556.694 412.769L541.482 380.769" stroke="#505050" />
                  <rect x="5.69936" y="4.07808" width="28" height="28"
                    transform="matrix(0.993068 0.117537 0.431771 0.901983 505.973 347.999)" stroke="#505050"
                    stroke-width="8" />
                  <path d="M484.694 364.269L518.694 367.4M578.694 372.769L549.194 370.129" stroke="#505050" />
                </g>
                <g class="act">
                  <rect width="42.5597" height="39.2859" transform="matrix(0.991445 0.130526 0.446666 0.894701 507 351)"
                    fill="url(#pattern5)" />
                </g>
              </g>
              <path
                d="M355.956 308.048L397.614 396.349L344.923 474.079L305.091 387.395L355.956 308.048ZM356.987 307.563L450.549 318.946L492.12 404.814L398.646 395.865L356.987 307.563ZM398.55 396.996L492.087 405.952L440.366 485.635L345.906 474.656L398.55 396.996Z"
                fill="#FFD51C" stroke="#505050" stroke-width="1.13749" />
            </svg>